<?xml version="1.0" standalone="no"?>
<!DOCTYPE svg PUBLIC "-//W3C//DTD SVG 20010904//EN"
 "http://www.w3.org/TR/2001/REC-SVG-20010904/DTD/svg10.dtd">
<svg version="1.0" xmlns="http://www.w3.org/2000/svg"
 width="48.000000pt" height="48.000000pt" viewBox="0 0 48.000000 48.000000"
 preserveAspectRatio="xMidYMid meet">
<metadata>
Created by potrace 1.16, written by Peter Selinger 2001-2019
</metadata>
<g transform="translate(0.000000,48.000000) scale(0.100000,-0.100000)"
fill="#000000" stroke="none">
<path d="M151 453 c-46 -10 -101 -52 -134 -105 -12 -20 -17 -49 -17 -108 0
-103 19 -137 105 -190 35 -22 52 -25 135 -25 74 0 101 4 119 17 21 15 27 16
40 4 20 -17 61 -30 61 -19 -1 4 -7 19 -14 32 -12 21 -10 29 10 65 19 33 24 56
24 119 0 96 -24 141 -104 191 -30 19 -171 31 -225 19z m166 -25 c30 -9 61 -27
90 -55 46 -46 58 -72 23 -53 -22 12 -60 4 -72 -14 -17 -26 -7 -56 27 -79 26
-17 32 -26 23 -35 -8 -8 -17 -8 -30 -1 -26 14 -41 3 -28 -22 12 -21 50 -25 81
-9 24 14 24 5 -1 -27 -11 -14 -20 -34 -20 -43 0 -13 -6 -17 -20 -13 -11 3 -26
1 -33 -5 -6 -5 -38 -15 -69 -22 -89 -20 -187 13 -235 79 l-23 30 35 -6 c74
-12 102 59 40 99 -43 28 -45 42 -5 35 38 -8 42 18 5 35 -19 9 -29 8 -50 -6
-37 -24 -33 -59 10 -86 19 -12 35 -25 35 -30 0 -16 -20 -21 -41 -9 -16 8 -23
8 -29 -1 -13 -21 -19 53 -7 99 27 113 159 175 294 139z"/>
<path d="M150 235 c0 -69 3 -85 15 -85 11 0 15 13 16 53 l1 52 24 -53 c13 -30
30 -52 36 -50 12 4 15 10 41 68 l16 35 0 -52 c1 -40 5 -53 16 -53 12 0 15 16
15 85 0 82 -1 85 -23 85 -18 0 -28 -10 -44 -47 l-20 -48 -22 48 c-17 37 -27
47 -46 47 -25 0 -25 -1 -25 -85z"/>
</g>
</svg>
